<?xml version="1.0" encoding="UTF-8"?>
<svg width="514" height="514" viewBox="0 0 514 514" xmlns="http://www.w3.org/2000/svg">
    <style>
        @media (prefers-color-scheme: dark) { .theme-aware { filter: invert(1); } }
        :root.dark .theme-aware { filter: invert(1); }
    </style>
    <g class="theme-aware">
        <path id="border" fill="#333333" fill-rule="evenodd" stroke="none" d="M 7.3752 487.431061 C 1 476.047333 1 460.864868 1 430.5 L 0.999999 83.5 C 0.999999 53.135132 0.999999 37.952667 7.375199 26.568939 C 11.880833 18.52356 18.52355 11.880859 26.568937 7.375214 C 37.952675 1 53.135117 1 83.5 1 L 430.5 1 C 460.864868 1 476.047333 1 487.431061 7.375214 C 495.47644 11.880829 502.119141 18.52356 506.624786 26.568939 C 513 37.952667 513 53.135132 513 83.5 L 513 430.5 C 513 460.864868 513 476.047333 506.624786 487.431061 C 502.119171 495.47644 495.47644 502.119171 487.431061 506.624786 C 476.047333 513 460.864868 513 430.5 513 L 83.5 513 C 53.135117 513 37.952675 513 26.568937 506.624786 C 18.52355 502.119171 11.880834 495.47644 7.3752 487.431061 Z M 21 430.5 L 21 83.5 C 21 49.899178 21.706236 41.910526 24.825115 36.34137 C 27.52849 31.514153 31.514122 27.528524 36.341381 24.825123 C 41.910542 21.706238 49.899174 21 83.5 21 L 430.5 21 C 464.10083 21 472.089478 21.706238 477.6586 24.825121 C 482.48584 27.528492 486.471466 31.514124 489.174896 36.341393 C 492.293762 41.910534 493 49.899181 493 83.5 L 493 430.5 C 493 464.10083 492.293762 472.089478 489.174866 477.6586 C 486.471497 482.48587 482.48587 486.471497 477.658661 489.174866 C 472.089478 492.293762 464.10083 493 430.5 493 L 83.5 493 C 49.899174 493 41.910542 492.293762 36.341377 489.174866 C 31.514133 486.471497 27.528503 482.48587 24.825115 477.65863 C 21.706238 472.089478 21 464.10083 21 430.5 Z"/>
        <path id="Body" fill="#333333" fill-rule="evenodd" stroke="none" d="M 45.825119 456.65863 C 42 449.8284 42 440.718933 42 422.5 L 42 91.5 C 42 73.281067 42 64.1716 45.825119 57.34137 C 48.5285 52.51413 52.51413 48.528503 57.341362 45.825134 C 64.171608 42 73.281067 42 91.5 42 L 422.5 42 C 440.718933 42 449.8284 42 456.65863 45.825134 C 461.48587 48.528503 465.471497 52.51413 468.174866 57.34137 C 472 64.1716 472 73.281067 472 91.5 L 472 422.5 C 472 440.718933 472 449.8284 468.174866 456.65863 C 465.471497 461.48587 461.48587 465.471497 456.65863 468.174866 C 449.8284 472 440.718933 472 422.5 472 L 91.5 472 C 73.281067 472 64.171608 472 57.341362 468.174866 C 52.51413 465.471497 48.5285 461.48587 45.825119 456.65863 Z"/>

        <!-- Rotated Diamond with 3D Facets - 3/4 Perspective View -->
        <g id="rotated-diamond">
            <!-- Top crown facets (brightest, facing light) -->
            <path d="M 257 130 L 200 180 L 240 195 L 280 175 Z" fill="white" opacity="0.95"/>
            <path d="M 257 130 L 280 175 L 320 190 L 300 165 Z" fill="white" opacity="0.85"/>
            <path d="M 257 130 L 300 165 L 340 180 L 310 150 Z" fill="white" opacity="0.75"/>

            <!-- Upper girdle facets -->
            <path d="M 200 180 L 170 220 L 195 235 L 240 195 Z" fill="white" opacity="0.8"/>
            <path d="M 240 195 L 195 235 L 230 250 L 280 210 Z" fill="white" opacity="0.7"/>
            <path d="M 280 175 L 280 210 L 330 225 L 320 190 Z" fill="white" opacity="0.65"/>
            <path d="M 320 190 L 330 225 L 370 240 L 340 180 Z" fill="white" opacity="0.6"/>
            <path d="M 340 180 L 370 240 L 390 215 L 360 175 Z" fill="white" opacity="0.55"/>

            <!-- Main pavilion facets (showing depth) -->
            <path d="M 170 220 L 150 280 L 180 310 L 195 235 Z" fill="white" opacity="0.7"/>
            <path d="M 195 235 L 180 310 L 220 340 L 230 250 Z" fill="white" opacity="0.65"/>
            <path d="M 230 250 L 220 340 L 270 360 L 280 210 Z" fill="white" opacity="0.6"/>
            <path d="M 280 210 L 270 360 L 320 375 L 330 225 Z" fill="white" opacity="0.55"/>
            <path d="M 330 225 L 320 375 L 370 380 L 370 240 Z" fill="white" opacity="0.5"/>
            <path d="M 370 240 L 370 380 L 410 350 L 390 215 Z" fill="white" opacity="0.45"/>

            <!-- Lower pavilion facets (deeper, more shadowed) -->
            <path d="M 150 280 L 160 350 L 200 375 L 180 310 Z" fill="white" opacity="0.5"/>
            <path d="M 180 310 L 200 375 L 250 390 L 220 340 Z" fill="white" opacity="0.45"/>
            <path d="M 220 340 L 250 390 L 290 395 L 270 360 Z" fill="white" opacity="0.4"/>
            <path d="M 270 360 L 290 395 L 340 390 L 320 375 Z" fill="white" opacity="0.35"/>
            <path d="M 320 375 L 340 390 L 380 375 L 370 380 Z" fill="white" opacity="0.3"/>
            <path d="M 370 380 L 380 375 L 400 340 L 410 350 Z" fill="white" opacity="0.25"/>

            <!-- Bottom point facets (culet area) -->
            <path d="M 160 350 L 180 390 L 220 395 L 200 375 Z" fill="white" opacity="0.35"/>
            <path d="M 200 375 L 220 395 L 270 398 L 250 390 Z" fill="white" opacity="0.3"/>
            <path d="M 250 390 L 270 398 L 315 395 L 290 395 Z" fill="white" opacity="0.25"/>
            <path d="M 290 395 L 315 395 L 350 385 L 340 390 Z" fill="white" opacity="0.2"/>
            <path d="M 340 390 L 350 385 L 375 365 L 380 375 Z" fill="white" opacity="0.15"/>
            <path d="M 380 375 L 375 365 L 385 325 L 400 340 Z" fill="white" opacity="0.1"/>

            <!-- Sharp edge highlights for dimension -->
            <path d="M 257 130 L 200 180 L 170 220" fill="none" stroke="white" stroke-width="1" opacity="0.4"/>
            <path d="M 257 130 L 310 150 L 360 175" fill="none" stroke="white" stroke-width="1" opacity="0.3"/>
            <path d="M 200 180 L 170 220 L 150 280" fill="none" stroke="white" stroke-width="0.5" opacity="0.2"/>
            <path d="M 360 175 L 390 215 L 410 350" fill="none" stroke="white" stroke-width="0.5" opacity="0.15"/>
        </g>
    </g>
</svg>